<svg width="80" height="120" viewBox="0 0 80 120" fill="none" xmlns="http://www.w3.org/2000/svg">
<path d="M37.0698 0.0999683C17.3198 1.49997 1.38981 17.52 0.0898104 37.28C-0.83019 51.22 5.38981 63.75 15.4498 71.58C18.0898 73.63 20.2398 76.25 21.6198 79.3L39.9998 120L58.3798 79.3C59.7498 76.26 61.8898 73.65 64.5298 71.6C73.9398 64.28 79.9998 52.85 79.9998 40C79.9998 16.94 60.4898 -1.56003 37.0698 0.0999683Z" fill="#75FA61"/>
<path fill-rule="evenodd" clip-rule="evenodd" d="M29.25 58.125V69.375L34.875 75H46.125L51.75 69.375V58.125L56.3985 53.4765C60.6255 49.2496 63 43.5053 63 37.5276C63 25.1012 52.9264 15 40.5 15C28.0736 15 18 25.1012 18 37.5276C18 43.5053 20.3747 49.2496 24.6015 53.4765L29.25 58.125ZM36.75 52.0274V37.5H44.25V52.0274C50.7195 50.3623 55.5 44.4894 55.5 37.5C55.5 29.2157 48.7841 22.5 40.5 22.5C32.2157 22.5 25.5 29.2157 25.5 37.5C25.5 44.4894 30.2804 50.3623 36.75 52.0274Z" fill="#1D2939"/>
<line x1="47.1716" y1="32.1716" x2="64.1716" y2="15.1716" stroke="#1D2939" stroke-width="8"/>
<line x1="46.8284" y1="15.1716" x2="63.8284" y2="32.1716" stroke="#1D2939" stroke-width="8"/>
</svg>
