<svg width="80" height="120" viewBox="0 0 80 120" fill="none" xmlns="http://www.w3.org/2000/svg">
<path d="M37.0698 0.0999683C17.3198 1.49997 1.38981 17.52 0.0898104 37.28C-0.83019 51.22 5.38981 63.75 15.4498 71.58C18.0898 73.63 20.2398 76.25 21.6198 79.3L39.9998 120L58.3798 79.3C59.7498 76.26 61.8898 73.65 64.5298 71.6C73.9398 64.28 79.9998 52.85 79.9998 40C79.9998 16.94 60.4898 -1.56003 37.0698 0.0999683Z" fill="#75FA61"/>
<path d="M34.7678 60.7674L41.2322 67.2319C42.3641 68.3636 43.8993 68.9996 45.5 68.9996C47.1007 68.9996 48.6359 68.3636 49.7678 67.2319L60.5 56.4996V48.9996L64.25 45.2496H64.4645L56.75 37.5352V37.7496L53 41.4996H45.5L34.7678 52.2318C33.6359 53.3637 33 54.8989 33 56.4996C33 58.1004 33.6359 59.6356 34.7678 60.7674Z" fill="#1D2939"/>
<path d="M59.1406 32.8572L69.1406 42.8572L72.9979 39L62.9979 29L59.1406 32.8572Z" fill="#1D2939"/>
<circle cx="28.5" cy="29.5" r="17.5" fill="#1D2939"/>
<path d="M25.6989 21.0993L22.1991 24.5991M18.6993 28.0989L22.1991 24.5991M22.1991 24.5991L25.699 28.099M22.1991 24.5991L18.6994 21.0994" stroke="#1D2939" stroke-width="3"/>
<path d="M38.3005 22.4997L34.8007 25.9995M31.3009 29.4993L34.8007 25.9995M34.8007 25.9995L38.3006 29.4994M34.8007 25.9995L31.301 22.4998" stroke="#1D2939" stroke-width="3"/>
</svg>
