<svg width="68" height="120" viewBox="0 0 68 120" fill="none" xmlns="http://www.w3.org/2000/svg">
<path d="M58.9419 111.724H8.27344V99.0567H58.9419V111.724Z" fill="#F3F3FC"/>
<path d="M50.4973 94.8349H16.718V82.1675H50.4973V94.8349Z" fill="#F3F3FC"/>
<path d="M50.4973 50.4996L44.4723 52.508L48.3859 77.9447H18.8294L22.7421 52.507L16.718 50.4996L25.1626 23.0535H42.0527L50.4973 50.4996Z" fill="#F3F3FC"/>
<path d="M33.6082 8.27576C37.1058 8.276 39.9412 11.1112 39.9413 14.6089C39.9413 18.1067 37.1059 20.9429 33.6082 20.9431C30.1102 20.9431 27.274 18.1069 27.274 14.6089C27.2741 11.1111 30.1103 8.27576 33.6082 8.27576Z" fill="#F3F3FC"/>
<path d="M58.9443 99.0568H8.27586V111.724H58.9443V99.0568ZM16.7204 82.1676V94.835H50.4997V82.1676H16.7204ZM25.165 23.0536L16.7204 50.4997L22.7445 52.5071L18.8318 77.9448H48.3883L44.4747 52.5081L50.4997 50.4997L42.0552 23.0536H25.165ZM39.9438 14.609C39.9437 11.1113 37.1082 8.27611 33.6106 8.27586C30.1127 8.27586 27.2765 11.1112 27.2764 14.609C27.2764 18.107 30.1127 20.9432 33.6106 20.9432C37.1083 20.943 39.9438 18.1068 39.9438 14.609ZM48.2146 14.9333L60.787 55.7944L53.7163 58.1513L56.1379 73.8918L58.7756 90.7809H67.2202V120H0V90.7809H8.44457L11.0823 73.8918L13.5028 58.1503L6.43218 55.7944L19.0046 14.9333C19.0022 14.8255 19.0005 14.7174 19.0005 14.609L19.0056 14.2312C19.2061 6.33601 25.6698 0 33.6106 0L33.9884 0.00505119C41.8816 0.205679 48.2194 6.66668 48.2196 14.609L48.2146 14.9333Z" fill="#E4536F"/>
</svg>
