<svg width="80" height="120" viewBox="0 0 80 120" fill="none" xmlns="http://www.w3.org/2000/svg">
<circle cx="40" cy="42" r="25" fill="#F3F3FC"/>
<path d="M37.0698 0.0999683C17.3198 1.49997 1.38981 17.52 0.0898104 37.28C-0.83019 51.22 5.38981 63.75 15.4498 71.58C18.0898 73.63 20.2398 76.25 21.6198 79.3L39.9998 120L58.3798 79.3C59.7498 76.26 61.8898 73.65 64.5298 71.6C73.9398 64.28 79.9998 52.85 79.9998 40C79.9998 16.94 60.4898 -1.56003 37.0698 0.0999683ZM39.9998 62.0002C28.9498 62.0002 19.9998 53.0502 19.9998 42.0002C19.9998 30.9502 28.9498 22.0002 39.9998 22.0002C51.0498 22.0002 59.9998 30.9502 59.9998 42.0002C59.9998 53.0502 51.0498 62.0002 39.9998 62.0002Z" fill="#FDB022"/>
<path fill-rule="evenodd" clip-rule="evenodd" d="M40 62C51.0457 62 60 53.0457 60 42C60 30.9543 51.0457 22 40 22C28.9543 22 20 30.9543 20 42C20 53.0457 28.9543 62 40 62ZM37.5 44.5V29.5H42.5V44.5H37.5ZM37.5 54.5V49.5H42.5V54.5H37.5Z" fill="#1D2939"/>
</svg>
